<svg xmlns="http://www.w3.org/2000/svg" width="16.724" height="13.83" viewBox="0 0 16.724 13.83">
  <g id="Alert-Filled" transform="translate(0 0)">
    <g id="Group_703" data-name="Group 703" transform="translate(0 0)">
      <path id="Path_781" data-name="Path 781" d="M16.509,12.435,9.242.587A.949.949,0,0,0,7.483.6L.215,12.43c-.484.79-.122,1.4.8,1.4H15.706C16.632,13.83,16.993,13.224,16.509,12.435ZM8.356,3.209c.465,0,.826.514.8,1.143L9.011,8.138c-.024.628-.319,1.142-.656,1.142S7.722,8.766,7.7,8.138L7.552,4.352C7.528,3.723,7.89,3.209,8.356,3.209Zm0,8.923a.948.948,0,0,1-.978-1.016.984.984,0,1,1,1.968,0A.957.957,0,0,1,8.356,12.133Z" transform="translate(0 0)" fill="#ff0035"/>
    </g>
  </g>
</svg>
