<svg id="BackArrow" xmlns="http://www.w3.org/2000/svg" width="19.224" height="16.824" viewBox="0 0 19.224 16.824">
  <path id="Path_66" data-name="Path 66" d="M1148.3,339.526h.435q6.843,0,13.684,0a1.2,1.2,0,0,1,.27,2.384,3.869,3.869,0,0,1-.394.011h-13.987c.088.117.143.2.205.271q2.026,2.435,4.054,4.868a1.255,1.255,0,0,1,.339,1.086,1.138,1.138,0,0,1-.809.925,1.159,1.159,0,0,1-1.22-.291,2.289,2.289,0,0,1-.168-.189q-2.9-3.482-5.8-6.963a1.209,1.209,0,0,1-.351-1.129,1.792,1.792,0,0,1,.329-.64q2.926-3.535,5.87-7.055a1.2,1.2,0,1,1,1.841,1.547q-2.031,2.448-4.07,4.891C1148.465,339.318,1148.4,339.4,1148.3,339.526Z" transform="translate(-1144.521 -332.311)" fill="#1f1f1f"/>
</svg>
