<svg xmlns="http://www.w3.org/2000/svg" width="16.792" height="16.792" viewBox="0 0 16.792 16.792">
  <g id="Check-Blue" transform="translate(-139.997 -271.997)">
    <g id="Livello_2" data-name="Livello 2" transform="translate(134 266)">
      <g id="Group_749" data-name="Group 749">
        <path id="Path_794" data-name="Path 794" d="M18.4,10a8.4,8.4,0,1,0,8.4,8.4A8.4,8.4,0,0,0,18.4,10Z" transform="translate(-4.003 -4.003)" fill="#2149b9"/>
        <path id="Path_795" data-name="Path 795" d="M20.408,24.971a.468.468,0,0,1-.3-.114l-2.6-2.339a.45.45,0,1,1,.606-.666l2.255,2.033,4.162-4.8a.452.452,0,0,1,.678.6l-4.468,5.14a.444.444,0,0,1-.312.15Z" transform="translate(-6.951 -7.579)" fill="#fff"/>
      </g>
    </g>
  </g>
</svg>
