<svg xmlns="http://www.w3.org/2000/svg" width="16.792" height="16.792" viewBox="0 0 16.792 16.792"><defs><style>.a{fill:#2149b9;}.b{fill:#fff;}</style></defs><g transform="translate(-139.997 -271.997)"><g transform="translate(134 266)"><path class="a" d="M18.4,10a8.4,8.4,0,1,0,8.4,8.4A8.4,8.4,0,0,0,18.4,10Z" transform="translate(-4.003 -4.003)"/><path class="b" d="M20.408,24.971a.468.468,0,0,1-.3-.114l-2.6-2.339a.45.45,0,1,1,.606-.666l2.255,2.033,4.162-4.8a.452.452,0,0,1,.678.6l-4.468,5.14a.444.444,0,0,1-.312.15Z" transform="translate(-6.951 -7.579)"/></g></g></svg>