<svg xmlns="http://www.w3.org/2000/svg" width="14" height="14" viewBox="0 0 14 14">
  <g id="Check-Green" transform="translate(-139.997 -271.997)">
    <g id="Livello_2" data-name="Livello 2" transform="translate(139.997 271.997)">
      <g id="Group_749" data-name="Group 749" transform="translate(0 0)">
        <path id="Path_794" data-name="Path 794" d="M17,10a7,7,0,1,0,7,7A7,7,0,0,0,17,10Z" transform="translate(-10 -10)" fill="#03be46"/>
        <path id="Path_795" data-name="Path 795" d="M19.9,23.968a.39.39,0,0,1-.25-.095l-2.165-1.95a.375.375,0,0,1,.5-.555l1.88,1.7,3.47-4a.377.377,0,1,1,.565.5l-3.725,4.285a.37.37,0,0,1-.26.125Z" transform="translate(-13.682 -14.468)" fill="#fff"/>
      </g>
    </g>
  </g>
</svg>
