<svg xmlns="http://www.w3.org/2000/svg" width="28" height="28" viewBox="0 0 28 28">
  <g id="ConnectHardware" transform="translate(-143 -247)">
    <rect id="Rectangle_337" data-name="Rectangle 337" width="28" height="28" transform="translate(143 247)" fill="none"/>
    <g id="ConnectHardware-2" data-name="ConnectHardware" transform="translate(152.922 251)">
      <g id="Group_748" data-name="Group 748">
        <g id="Group_742" data-name="Group 742" transform="translate(0 4.974)">
          <path id="Path_788" data-name="Path 788" d="M24.994,30.826A4.024,4.024,0,0,1,20.9,26.905V15.8h8.156V26.935A3.971,3.971,0,0,1,24.994,30.826ZM21.525,16.4V26.935a3.473,3.473,0,0,0,6.937-.03V16.4Z" transform="translate(-20.9 -15.8)" stroke="#2a2a2a" stroke-width="0.2"/>
        </g>
        <g id="Group_743" data-name="Group 743" transform="translate(1.243 12.431)">
          <path id="Path_789" data-name="Path 789" d="M28.947,50.731A2.853,2.853,0,0,1,26.1,47.883,2.884,2.884,0,0,1,28.947,45a2.853,2.853,0,0,1,2.847,2.847A2.884,2.884,0,0,1,28.947,50.731Zm0-5.01a2.13,2.13,0,0,0-2.126,2.126,2.126,2.126,0,1,0,4.253,0A2.13,2.13,0,0,0,28.947,45.721Z" transform="translate(-26.1 -45)" stroke="#2a2a2a" stroke-width="0.2"/>
        </g>
        <g id="Group_744" data-name="Group 744" transform="translate(0.36 6.965)">
          <rect id="Rectangle_319" data-name="Rectangle 319" width="7.435" height="0.721" transform="translate(0)" stroke="#2a2a2a" stroke-width="0.2"/>
        </g>
        <g id="Group_745" data-name="Group 745" transform="translate(1.261)">
          <path id="Path_790" data-name="Path 790" d="M30.069,7.694H24.4V2h5.669Zm-5.079-.721h4.488V2.721H24.991Z" transform="translate(-24.4 -2)" stroke="#2a2a2a" stroke-width="0.2"/>
        </g>
        <g id="Group_746" data-name="Group 746" transform="translate(2.481 2.487)">
          <rect id="Rectangle_320" data-name="Rectangle 320" width="1.081" height="0.721" stroke="#2a2a2a" stroke-width="0.2"/>
        </g>
        <g id="Group_747" data-name="Group 747" transform="translate(4.625 2.487)">
          <rect id="Rectangle_321" data-name="Rectangle 321" width="1.081" height="0.721" stroke="#2a2a2a" stroke-width="0.2"/>
        </g>
      </g>
    </g>
  </g>
</svg>
