<svg xmlns="http://www.w3.org/2000/svg" width="28" height="28" viewBox="0 0 28 28"><defs><style>.a{fill:none;}.b{stroke:#2a2a2a;stroke-width:0.2px;}</style></defs><g transform="translate(-143 -247)"><rect class="a" width="28" height="28" transform="translate(143 247)"/><g transform="translate(152.922 251)"><g transform="translate(0 4.974)"><path class="b" d="M24.994,30.826A4.024,4.024,0,0,1,20.9,26.905V15.8h8.156V26.935A3.971,3.971,0,0,1,24.994,30.826ZM21.525,16.4V26.935a3.473,3.473,0,0,0,6.937-.03V16.4Z" transform="translate(-20.9 -15.8)"/></g><g transform="translate(1.243 12.431)"><path class="b" d="M28.947,50.731A2.853,2.853,0,0,1,26.1,47.883,2.884,2.884,0,0,1,28.947,45a2.853,2.853,0,0,1,2.847,2.847A2.884,2.884,0,0,1,28.947,50.731Zm0-5.01a2.13,2.13,0,0,0-2.126,2.126,2.126,2.126,0,1,0,4.253,0A2.13,2.13,0,0,0,28.947,45.721Z" transform="translate(-26.1 -45)"/></g><g transform="translate(0.36 6.965)"><rect class="b" width="7.435" height="0.721" transform="translate(0)"/></g><g transform="translate(1.261)"><path class="b" d="M30.069,7.694H24.4V2h5.669Zm-5.079-.721h4.488V2.721H24.991Z" transform="translate(-24.4 -2)"/></g><g transform="translate(2.481 2.487)"><rect class="b" width="1.081" height="0.721"/></g><g transform="translate(4.625 2.487)"><rect class="b" width="1.081" height="0.721"/></g></g></g></svg>