<svg xmlns="http://www.w3.org/2000/svg" width="28" height="28" viewBox="0 0 28 28">
  <g id="ConnectedSites" transform="translate(-285 -631)">
    <g id="Connected" transform="translate(283.538 625.367)">
      <g id="Group_772" data-name="Group 772" transform="translate(6.463 11.633)">
        <path id="Path_817" data-name="Path 817" d="M18.94,26.867H11.272a1.06,1.06,0,0,1-.853-.492L6.584,19.743a1.058,1.058,0,0,1,0-.986l3.834-6.632a1.06,1.06,0,0,1,.854-.493h7.669a1.06,1.06,0,0,1,.853.492l3.834,6.632a1.058,1.058,0,0,1,0,.986l-3.834,6.632A1.059,1.059,0,0,1,18.94,26.867ZM11.272,12.229a.477.477,0,0,0-.338.195L7.1,19.055a.474.474,0,0,0,0,.389l3.834,6.632a.476.476,0,0,0,.338.195h7.669a.477.477,0,0,0,.338-.195l3.834-6.632a.474.474,0,0,0,0-.389l-3.834-6.632a.476.476,0,0,0-.338-.195Z" transform="translate(-6.463 -11.633)" stroke="#000" stroke-width="0.4"/>
      </g>
      <g id="Group_774" data-name="Group 774" transform="translate(11.951 16.008)">
        <g id="Group_773" data-name="Group 773" transform="translate(0 0)">
          <path id="Path_818" data-name="Path 818" d="M36.779,40.157a.332.332,0,0,1-.261-.126l-2.339-2.949a.335.335,0,0,1,.054-.469.343.343,0,0,1,.469.054l2.031,2.561,3.06-5.391a.343.343,0,0,1,.455-.126.334.334,0,0,1,.126.455l-3.3,5.822a.334.334,0,0,1-.265.168Z" transform="translate(-34.107 -33.671)" stroke="#000" stroke-width="0.4"/>
        </g>
      </g>
    </g>
    <rect id="Rectangle_398" data-name="Rectangle 398" width="28" height="28" transform="translate(285 631)" fill="none"/>
  </g>
</svg>
