<svg xmlns="http://www.w3.org/2000/svg" width="28" height="28" viewBox="0 0 28 28">
  <g id="CopyClipboard" transform="translate(-152 -300)">
    <rect id="Rectangle_343" data-name="Rectangle 343" width="28" height="28" transform="translate(152 300)" fill="none"/>
    <g id="Copy" transform="translate(137 291)">
      <g id="Group_109" data-name="Group 109" transform="translate(22 15)">
        <path id="Path_81" data-name="Path 81" d="M23.261,39.37h9.371a1.262,1.262,0,0,0,1.261-1.261V26.261A1.261,1.261,0,0,0,32.632,25H23.261A1.261,1.261,0,0,0,22,26.261V38.109A1.262,1.262,0,0,0,23.261,39.37Zm-.27-13.109a.271.271,0,0,1,.27-.27h9.371a.271.271,0,0,1,.27.27V38.109a.271.271,0,0,1-.27.27H23.261a.271.271,0,0,1-.27-.27Z" transform="translate(-22 -22.522)" fill="#2a2a2a"/>
        <path id="Path_82" data-name="Path 82" d="M42.632,15H33.261A1.261,1.261,0,0,0,32,16.261a.5.5,0,1,0,.991,0,.271.271,0,0,1,.27-.27h9.371a.271.271,0,0,1,.27.27V28.109a.271.271,0,0,1-.27.27.5.5,0,1,0,0,.991,1.261,1.261,0,0,0,1.261-1.261V16.261A1.261,1.261,0,0,0,42.632,15Z" transform="translate(-29.522 -15)" fill="#2a2a2a"/>
      </g>
    </g>
  </g>
</svg>
