<svg xmlns="http://www.w3.org/2000/svg" width="10.945" height="12.832" viewBox="0 0 10.945 12.832">
  <g id="Copy" transform="translate(-22 -15)">
    <g id="Group_109" data-name="Group 109" transform="translate(22 15)">
      <path id="Path_81" data-name="Path 81" d="M22.961,35.945H30.1a.961.961,0,0,0,.961-.961V25.961A.961.961,0,0,0,30.1,25H22.961a.961.961,0,0,0-.961.961v9.024A.961.961,0,0,0,22.961,35.945Zm-.206-9.985a.206.206,0,0,1,.206-.206H30.1a.206.206,0,0,1,.206.206v9.024a.206.206,0,0,1-.206.206H22.961a.206.206,0,0,1-.206-.206Z" transform="translate(-22 -23.113)" fill="#848484"/>
      <path id="Path_82" data-name="Path 82" d="M40.1,15H32.961a.961.961,0,0,0-.961.961.377.377,0,1,0,.755,0,.206.206,0,0,1,.206-.206H40.1a.206.206,0,0,1,.206.206v9.024a.206.206,0,0,1-.206.206.377.377,0,1,0,0,.755.961.961,0,0,0,.961-.961V15.961A.961.961,0,0,0,40.1,15Z" transform="translate(-30.113 -15)" fill="#848484"/>
    </g>
  </g>
</svg>
