<svg xmlns="http://www.w3.org/2000/svg" width="24" height="24" viewBox="0 0 24 24">
  <g id="Delete" transform="translate(-21 -679)">
    <rect id="Rectangle_399" data-name="Rectangle 399" width="24" height="24" transform="translate(21 679)" fill="none"/>
    <g id="Delete2" transform="translate(20 679)">
      <path id="Path_819" data-name="Path 819" d="M11.031,5.536H7.152a1.152,1.152,0,0,0,0,2.3h.576v9.986a1.537,1.537,0,0,0,1.536,1.536h7.3A1.537,1.537,0,0,0,18.1,17.826V7.841h.576a1.153,1.153,0,0,0,1.152-1.152h0a1.153,1.153,0,0,0-1.152-1.152H14.795a1.921,1.921,0,0,0-3.764,0Zm6.3,2.3v9.986a.768.768,0,0,1-.768.768h-7.3a.768.768,0,0,1-.768-.768V7.841Zm-4.8,1.92v6.913a.384.384,0,1,0,.768,0V9.761a.384.384,0,1,0-.768,0Zm-2.688,0v6.913a.384.384,0,1,0,.768,0V9.761a.384.384,0,1,0-.768,0Zm5.377,0v6.913a.384.384,0,1,0,.768,0V9.761a.384.384,0,1,0-.768,0Zm3.457-2.688H7.152a.386.386,0,0,1-.272-.113.4.4,0,0,1-.113-.272A.384.384,0,0,1,7.152,6.3H18.674a.384.384,0,1,1,0,.768ZM14,5.536a1.152,1.152,0,0,0-2.173,0Z" fill="#2a2a2a"/>
    </g>
  </g>
</svg>
