<svg xmlns="http://www.w3.org/2000/svg" width="20.489" height="20.5" viewBox="0 0 20.489 20.5">
  <g id="Download" transform="translate(-12 -11.96)">
    <path id="Path_732" data-name="Path 732" d="M31.752,23.758l3.734,2.982a1.444,1.444,0,0,0,1.973,0l3.734-2.982a.672.672,0,1,0-.839-1.051l-3.21,2.562V12.632a.672.672,0,0,0-1.344,0V25.269l-3.21-2.562a.672.672,0,1,0-.839,1.051Z" transform="translate(-14.229)" fill="#03be46"/>
    <path id="Path_733" data-name="Path 733" d="M31.815,59a.673.673,0,0,0-.674.672v4.3a1.532,1.532,0,0,1-1.577,1.479H14.925a1.532,1.532,0,0,1-1.577-1.479v-4.3a.674.674,0,0,0-1.348,0v4.3A2.878,2.878,0,0,0,14.925,66.8H29.564a2.878,2.878,0,0,0,2.925-2.823v-4.3A.673.673,0,0,0,31.815,59Z" transform="translate(0 -34.337)" fill="#03be46"/>
  </g>
</svg>
