<svg xmlns="http://www.w3.org/2000/svg" width="28" height="28" viewBox="0 0 28 28">
  <g id="ExpandedView" transform="translate(-243 -631)">
    <rect id="Rectangle_397" data-name="Rectangle 397" width="28" height="28" transform="translate(243 631)" fill="none"/>
    <g id="Group" transform="translate(239 627)">
      <path id="Path" d="M15.121,11h-3.6a.526.526,0,0,0-.526.526v3.6h1.052V12.789l4.192,4.192.737-.737-4.192-4.192h2.333Z"/>
      <path id="Path-2" data-name="Path" d="M60.354,11h-3.6v1.052h2.333L54.9,16.244l.737.737,4.192-4.192v2.333H60.88v-3.6A.526.526,0,0,0,60.354,11Z" transform="translate(-36.201)"/>
      <path id="Path-3" data-name="Path" d="M59.828,59.092,55.637,54.9l-.737.737,4.192,4.192H56.759V60.88h3.6a.526.526,0,0,0,.526-.526v-3.6H59.828Z" transform="translate(-36.201 -36.201)"/>
      <path id="Path-4" data-name="Path" d="M15.121,60.88V59.828H12.789l4.192-4.192-.737-.737-4.192,4.192V56.759H11v3.6a.526.526,0,0,0,.526.526Z" transform="translate(0 -36.201)"/>
    </g>
  </g>
</svg>
