<svg xmlns="http://www.w3.org/2000/svg" width="28" height="28" viewBox="0 0 28 28"><defs><style>.a,.b{fill:none;}.b{stroke:#000;stroke-width:0.8px;}.c{fill:#2a2a2a;}.d{stroke:none;}</style></defs><g transform="translate(-202 -247)"><rect class="a" width="28" height="28" transform="translate(202 247)"/><g transform="translate(208 252)"><g class="b"><circle class="d" cx="9" cy="9" r="9"/><circle class="a" cx="9" cy="9" r="8.6"/></g><path class="c" d="M.92,0V-6.545H1.926V0Zm.511-7.636a.708.708,0,0,1-.5-.2.64.64,0,0,1-.211-.482A.64.64,0,0,1,.927-8.8a.708.708,0,0,1,.5-.2.708.708,0,0,1,.5.2.64.64,0,0,1,.211.482.64.64,0,0,1-.211.482A.708.708,0,0,1,1.432-7.636Z" transform="translate(7.568 13.5)"/></g></g></svg>