<svg xmlns="http://www.w3.org/2000/svg" width="28" height="28" viewBox="0 0 28 28">
  <g id="Info" transform="translate(-202 -247)">
    <rect id="Rectangle_339" data-name="Rectangle 339" width="28" height="28" transform="translate(202 247)" fill="none"/>
    <g id="Group_752" data-name="Group 752" transform="translate(208 252)">
      <g id="Ellipse_102" data-name="Ellipse 102" fill="none" stroke="#000" stroke-width="0.8">
        <circle cx="9" cy="9" r="9" stroke="none"/>
        <circle cx="9" cy="9" r="8.6" fill="none"/>
      </g>
      <path id="Path_798" data-name="Path 798" d="M.92,0V-6.545H1.926V0Zm.511-7.636a.708.708,0,0,1-.5-.2.64.64,0,0,1-.211-.482A.64.64,0,0,1,.927-8.8a.708.708,0,0,1,.5-.2.708.708,0,0,1,.5.2.64.64,0,0,1,.211.482.64.64,0,0,1-.211.482A.708.708,0,0,1,1.432-7.636Z" transform="translate(7.568 13.5)" fill="#2a2a2a"/>
    </g>
  </g>
</svg>
