<svg xmlns="http://www.w3.org/2000/svg" width="10.503" height="13.129" viewBox="0 0 10.503 13.129">
  <g id="Lock" transform="translate(-4 -2)">
    <path id="Path_833" data-name="Path 833" d="M13.847,7.252H13.19V5.939a3.939,3.939,0,0,0-7.877,0V7.252H4.656A.658.658,0,0,0,4,7.908v6.564a.658.658,0,0,0,.656.656h9.19a.658.658,0,0,0,.656-.656V7.908A.658.658,0,0,0,13.847,7.252ZM6.626,5.939a2.626,2.626,0,1,1,5.252,0V7.252H6.626ZM9.252,12.5a1.313,1.313,0,1,1,1.313-1.313A1.317,1.317,0,0,1,9.252,12.5Z" fill="#848484"/>
  </g>
</svg>
