<svg xmlns="http://www.w3.org/2000/svg" width="24" height="24" viewBox="0 0 24 24">
  <g id="Group_808" data-name="Group 808" transform="translate(-3468 251)">
    <rect id="Rectangle_408" data-name="Rectangle 408" width="24" height="24" transform="translate(3468 -251)" fill="#fff"/>
    <g id="Group_813" data-name="Group 813" transform="translate(3469.5 -249)">
      <path id="Rectangle_407" data-name="Rectangle 407" d="M-.4-.4H10.9V9.287H-.4ZM10.1.4H.4V8.487h9.7Z" transform="translate(5.5 8.251)"/>
      <path id="Path_834" data-name="Path 834" d="M7.6,8.655V6.232a3.632,3.632,0,1,1,7.264,0V8.655h-.8V6.232a2.832,2.832,0,1,0-5.663,0V8.655Z" transform="translate(-0.48)"/>
      <path id="Ellipse_178" data-name="Ellipse 178" d="M.955-.4A1.355,1.355,0,1,1-.4.955,1.357,1.357,0,0,1,.955-.4Zm0,1.91A.555.555,0,1,0,.4.955.556.556,0,0,0,.955,1.51Z" transform="translate(9.797 11.593)"/>
    </g>
  </g>
</svg>
