<svg xmlns="http://www.w3.org/2000/svg" width="28" height="28" viewBox="0 0 28 28"><defs><style>.a{fill:none;}.b{fill:#2a2a2a;}</style></defs><g transform="translate(-243 -247)"><rect class="a" width="28" height="28" transform="translate(243 247)"/><g transform="translate(249 252)"><path class="b" d="M63.192,966.362H57.516a.528.528,0,0,0-.516.5v17a.528.528,0,0,0,.516.5h5.676a.528.528,0,0,0,.516-.5v-2.989a.516.516,0,0,0-1.032,0v2.489H58.032v-16h4.644v2.489a.516.516,0,0,0,1.032,0v-2.989A.541.541,0,0,0,63.192,966.362Z" transform="translate(-57 -966.362)"/><path class="b" d="M30.417,987.976a.548.548,0,0,0-.146-.334l-4.128-4.128a.54.54,0,0,0-.73-.019.479.479,0,0,0-.02.687l3.314,3.309H17.516a.487.487,0,1,0,0,.971H28.707l-3.314,3.308a.487.487,0,0,0,.02.687.54.54,0,0,0,.73-.019l4.128-4.128A.419.419,0,0,0,30.417,987.976Z" transform="translate(-13.917 -978.976)"/></g></g></svg>