<svg xmlns="http://www.w3.org/2000/svg" width="28" height="28" viewBox="0 0 28 28">
  <g id="QRCode" transform="translate(-103 -300)">
    <rect id="Rectangle_342" data-name="Rectangle 342" width="28" height="28" transform="translate(103 300)" fill="none"/>
    <g id="QRScan" transform="translate(103 298.4)">
      <rect id="Rectangle_322" data-name="Rectangle 322" width="17.669" height="1.06" transform="translate(5 15.532)"/>
      <path id="Path_801" data-name="Path 801" d="M18.6,7.6H12.4v6.2h6.2Zm-1.041,5.163h-4.1V8.66h4.1Z" transform="translate(-5.947)"/>
      <rect id="Rectangle_323" data-name="Rectangle 323" width="1.256" height="1.256" transform="translate(8.868 10.074)"/>
      <path id="Path_802" data-name="Path 802" d="M17.563,67.633h-4.1V63H12.4v5.674h6.224V63h-1.06Z" transform="translate(-5.947 -44.523)"/>
      <rect id="Rectangle_324" data-name="Rectangle 324" width="1.256" height="1.256" transform="translate(8.868 20.42)"/>
      <path id="Path_803" data-name="Path 803" d="M62.8,7.6H56.6v6.2h6.2Zm-1.041,5.163h-4.1V8.66h4.1Z" transform="translate(-41.47)"/>
      <rect id="Rectangle_325" data-name="Rectangle 325" width="1.256" height="1.256" transform="translate(17.526 10.074)"/>
      <rect id="Rectangle_326" data-name="Rectangle 326" width="2.493" height="1.256" transform="translate(17.604 22.933)"/>
      <rect id="Rectangle_327" data-name="Rectangle 327" width="1.256" height="1.256" transform="translate(13.854 22.933)"/>
      <rect id="Rectangle_328" data-name="Rectangle 328" width="1.256" height="1.256" transform="translate(20.098 21.677)"/>
      <rect id="Rectangle_329" data-name="Rectangle 329" width="1.256" height="0.785" transform="translate(18.861 19.654)"/>
      <path id="Path_804" data-name="Path 804" d="M57.737,71.263H56.5V72.5h2.454l.02-3.2H57.737Z" transform="translate(-41.389 -49.587)"/>
      <rect id="Rectangle_330" data-name="Rectangle 330" width="2.474" height="1.237" transform="translate(13.874 18.477)"/>
    </g>
  </g>
</svg>
