<svg xmlns="http://www.w3.org/2000/svg" width="16" height="16" viewBox="0 0 16 16">
  <g id="QuestionMark" transform="translate(-270 -202)">
    <g id="Ellipse_1" data-name="Ellipse 1" transform="translate(270 202)" fill="#fff" stroke="#9fa9ba" stroke-width="1">
      <circle cx="8" cy="8" r="8" stroke="none"/>
      <circle cx="8" cy="8" r="7.5" fill="none"/>
    </g>
    <path id="Path_1" data-name="Path 1" d="M-.99-3.11v-.046A3.887,3.887,0,0,1-.837-4.319a1.767,1.767,0,0,1,.413-.7,3.336,3.336,0,0,1,.642-.493,1.974,1.974,0,0,0,.405-.327,1.451,1.451,0,0,0,.285-.438,1.4,1.4,0,0,0,.105-.551,1.181,1.181,0,0,0-.176-.65A1.181,1.181,0,0,0,.368-7.9a1.426,1.426,0,0,0-.654-.149,1.464,1.464,0,0,0-.6.13,1.17,1.17,0,0,0-.486.409,1.424,1.424,0,0,0-.226.73h-.964a2.152,2.152,0,0,1,.338-1.113A2.01,2.01,0,0,1-1.412-8.6,2.555,2.555,0,0,1-.286-8.847a2.444,2.444,0,0,1,1.172.268,1.933,1.933,0,0,1,.772.734,2.063,2.063,0,0,1,.273,1.063,2.147,2.147,0,0,1-.128.761,1.92,1.92,0,0,1-.367.608,2.558,2.558,0,0,1-.576.474A2.406,2.406,0,0,0,.322-4.5a1.418,1.418,0,0,0-.294.549,3.077,3.077,0,0,0-.1.792v.046ZM-.5-.847a.663.663,0,0,1-.486-.2.663.663,0,0,1-.2-.486.663.663,0,0,1,.2-.486.663.663,0,0,1,.486-.2.663.663,0,0,1,.486.2.663.663,0,0,1,.2.486.659.659,0,0,1-.094.344.72.72,0,0,1-.249.25A.656.656,0,0,1-.5-.847Z" transform="translate(278.565 214.847)" fill="#9fa9ba"/>
  </g>
</svg>
