<svg xmlns="http://www.w3.org/2000/svg" width="28" height="28" viewBox="0 0 28 28"><defs><style>.a{fill:none;}.b{fill:#2a2a2a;stroke:#2a2a2a;stroke-width:0.4px;}</style></defs><g transform="translate(-106 -343)"><rect class="a" width="28" height="28" transform="translate(106 343)"/><g transform="translate(87.6 327.9)"><g transform="translate(25.4 20.1)"><path class="b" d="M39.742,22H35.308v-.774A1.13,1.13,0,0,0,34.178,20.1H31.232A1.13,1.13,0,0,0,30.1,21.231V22H25.7a.3.3,0,0,0,0,.6h1.012V35.78a2.07,2.07,0,0,0,2.083,2.083h7.885A2.07,2.07,0,0,0,38.76,35.78V22.6h1.012a.281.281,0,0,0,.3-.3A.306.306,0,0,0,39.742,22Zm-9.016-.774a.533.533,0,0,1,.536-.536h2.946a.533.533,0,0,1,.536.536V22H30.726Zm7.409,14.55a1.473,1.473,0,0,1-1.488,1.488H28.792A1.473,1.473,0,0,1,27.3,35.78V22.6h10.86V35.78Z" transform="translate(-25.4 -20.1)"/><path class="b" d="M49.3,46.316a.281.281,0,0,0,.3-.3V36.5a.3.3,0,1,0-.6,0v9.521A.3.3,0,0,0,49.3,46.316Z" transform="translate(-41.978 -31.41)"/><path class="b" d="M59.3,46.316a.281.281,0,0,0,.3-.3V36.5a.3.3,0,1,0-.6,0v9.521A.3.3,0,0,0,59.3,46.316Z" transform="translate(-49.003 -31.41)"/><path class="b" d="M39.3,46.316a.281.281,0,0,0,.3-.3V36.5a.3.3,0,1,0-.6,0v9.521A.3.3,0,0,0,39.3,46.316Z" transform="translate(-34.953 -31.41)"/></g></g></g></svg>