<svg xmlns="http://www.w3.org/2000/svg" width="17.2" height="17.2" viewBox="0 0 17.2 17.2">
  <g id="Scan" transform="translate(0.1 0.1)">
    <g id="Group_801" data-name="Group 801">
      <path id="Path_828" data-name="Path 828" d="M7,23.68a.682.682,0,0,0,.68.68H18.56a.68.68,0,0,0,0-1.36H7.68A.682.682,0,0,0,7,23.68Z" transform="translate(-4.62 -15.18)" fill="#2049b9" stroke="#2049b9" stroke-width="0.2"/>
      <path id="Path_829" data-name="Path 829" d="M5.27,37.09H1.36V33.18a.68.68,0,1,0-1.36,0v4.59a.682.682,0,0,0,.68.68H5.27a.68.68,0,0,0,0-1.36Z" transform="translate(0 -21.45)" fill="#2049b9" stroke="#2049b9" stroke-width="0.2"/>
      <path id="Path_830" data-name="Path 830" d="M.68,5.95a.682.682,0,0,0,.68-.68V1.36H5.27A.68.68,0,1,0,5.27,0H.68A.682.682,0,0,0,0,.68V5.27A.682.682,0,0,0,.68,5.95Z" fill="#2049b9" stroke="#2049b9" stroke-width="0.2"/>
      <path id="Path_831" data-name="Path 831" d="M37.77,0H33.18a.68.68,0,1,0,0,1.36h3.91V5.27a.68.68,0,0,0,1.36,0V.68A.682.682,0,0,0,37.77,0Z" transform="translate(-21.45)" fill="#2049b9" stroke="#2049b9" stroke-width="0.2"/>
      <path id="Path_832" data-name="Path 832" d="M37.77,32.5a.682.682,0,0,0-.68.68v3.91H33.18a.68.68,0,0,0,0,1.36h4.59a.682.682,0,0,0,.68-.68V33.18A.682.682,0,0,0,37.77,32.5Z" transform="translate(-21.45 -21.45)" fill="#2049b9" stroke="#2049b9" stroke-width="0.2"/>
    </g>
  </g>
</svg>
