<svg xmlns="http://www.w3.org/2000/svg" width="28" height="28" viewBox="0 0 28 28">
  <g id="Send" transform="translate(-50 -343)">
    <rect id="Rectangle_364" data-name="Rectangle 364" width="28" height="28" transform="translate(50 343)" fill="none"/>
    <g id="downarrow-2" transform="translate(58 350)">
      <g id="Group_727" data-name="Group 727" transform="translate(0 0)">
        <path id="Path_776" data-name="Path 776" d="M34.863,25.542,30.6,20.5V31.753a.683.683,0,0,1-1.366,0V20.64l-4.027,4.9a.683.683,0,0,1-1.055-.868l5.279-6.418A.683.683,0,0,1,29.957,18h0a.683.683,0,0,1,.522.242l5.423,6.418a.683.683,0,1,1-1.043.882Z" transform="translate(-23.999 -18)" fill="#2a2a2a"/>
      </g>
    </g>
  </g>
</svg>
