<svg xmlns="http://www.w3.org/2000/svg" width="30" height="30" viewBox="0 0 30 30">
  <g id="Sent" transform="translate(-18 -370)">
    <g id="Ellipse_117" data-name="Ellipse 117" transform="translate(18 370)" fill="#fff" stroke="#2049b9" stroke-width="1">
      <circle cx="15" cy="15" r="15" stroke="none"/>
      <circle cx="15" cy="15" r="14.5" fill="none"/>
    </g>
    <g id="Group_784" data-name="Group 784" transform="translate(28 379)">
      <path id="Path_776" data-name="Path 776" d="M33.78,24.791l-3.835-4.539V30.383a.615.615,0,1,1-1.23,0V20.377l-3.625,4.407A.615.615,0,1,1,24.14,24l4.753-5.778A.615.615,0,0,1,29.363,18h0a.615.615,0,0,1,.47.218L34.719,24a.615.615,0,1,1-.939.794Z" transform="translate(-23.999 -18)" fill="#2149b9"/>
    </g>
  </g>
</svg>
