<svg xmlns="http://www.w3.org/2000/svg" width="28" height="28" viewBox="0 0 28 28">
  <g id="Settings" transform="translate(-161 -247)">
    <rect id="Rectangle_338" data-name="Rectangle 338" width="28" height="28" transform="translate(161 247)" fill="none"/>
    <g id="Settings-2" data-name="Settings" transform="translate(166.548 252)">
      <g id="Group_751" data-name="Group 751">
        <g id="Group_750" data-name="Group 750">
          <path id="Path_796" data-name="Path 796" d="M20.775,10.708H19.261a6.752,6.752,0,0,0-.274-.655l1.072-1.072a1.1,1.1,0,0,0,.326-.773,1.07,1.07,0,0,0-.314-.775L18.445,5.806a1.121,1.121,0,0,0-1.548.012l-1.07,1.07a6.732,6.732,0,0,0-.657-.275V5.1A1.1,1.1,0,0,0,14.085,4h-2.3A1.1,1.1,0,0,0,10.7,5.1v1.51a6.765,6.765,0,0,0-.657.275l-1.07-1.07a1.121,1.121,0,0,0-1.548-.012L5.8,7.433A1.1,1.1,0,0,0,5.81,8.981l1.072,1.072a6.753,6.753,0,0,0-.274.655H5.095a1.1,1.1,0,0,0-1.1,1.086v2.3a1.1,1.1,0,0,0,1.1,1.086H6.612a6.708,6.708,0,0,0,.273.651L5.81,16.906a1.1,1.1,0,0,0-.327.773,1.069,1.069,0,0,0,.314.775L7.424,20.08a1.121,1.121,0,0,0,1.548-.012L10.05,18.99a6.818,6.818,0,0,0,.649.272v1.521a1.1,1.1,0,0,0,1.086,1.1h2.3a1.1,1.1,0,0,0,1.086-1.1V19.262a6.657,6.657,0,0,0,.649-.272L16.9,20.068a1.121,1.121,0,0,0,1.548.012l1.626-1.626a1.067,1.067,0,0,0,.314-.775,1.105,1.105,0,0,0-.326-.773L18.983,15.83a6.708,6.708,0,0,0,.273-.651h1.518a1.1,1.1,0,0,0,1.1-1.086v-2.3A1.1,1.1,0,0,0,20.775,10.708Zm.464,3.386a.456.456,0,0,1-.464.447H19.027a.32.32,0,0,0-.3.223,6.022,6.022,0,0,1-.411.981.319.319,0,0,0,.057.374l1.239,1.239a.47.47,0,0,1,.14.328A.435.435,0,0,1,19.62,18l-1.626,1.626a.467.467,0,0,1-.645-.012l-1.241-1.241a.32.32,0,0,0-.374-.057,6.079,6.079,0,0,1-.979.409.319.319,0,0,0-.224.3v1.751a.456.456,0,0,1-.447.464h-2.3a.456.456,0,0,1-.447-.464V19.032a.319.319,0,0,0-.224-.3,6.055,6.055,0,0,1-.979-.409.32.32,0,0,0-.374.057L8.521,19.616a.467.467,0,0,1-.645.012L6.25,18a.434.434,0,0,1-.127-.316.469.469,0,0,1,.14-.329L7.5,16.119a.319.319,0,0,0,.057-.374,6.022,6.022,0,0,1-.411-.981.322.322,0,0,0-.306-.223H5.095a.457.457,0,0,1-.465-.447v-2.3a.457.457,0,0,1,.465-.447H6.838a.319.319,0,0,0,.3-.224,6.02,6.02,0,0,1,.411-.985A.32.32,0,0,0,7.5,9.764L6.262,8.529a.457.457,0,0,1-.012-.645L7.876,6.258a.468.468,0,0,1,.645.012L9.753,7.5a.32.32,0,0,0,.374.057,6.058,6.058,0,0,1,.987-.413.319.319,0,0,0,.224-.3V5.1a.456.456,0,0,1,.447-.465h2.3a.457.457,0,0,1,.447.465V6.843a.319.319,0,0,0,.224.3,6.058,6.058,0,0,1,.987.413.32.32,0,0,0,.374-.057L17.349,6.27a.467.467,0,0,1,.645-.012L19.62,7.884a.457.457,0,0,1-.012.645L18.373,9.764a.32.32,0,0,0-.057.374,5.992,5.992,0,0,1,.411.985.319.319,0,0,0,.3.224h1.743a.456.456,0,0,1,.464.447Z" transform="translate(-3.991 -4)"/>
          <path id="Path_797" data-name="Path 797" d="M23.824,19.982a3.833,3.833,0,1,0,3.833,3.833A3.837,3.837,0,0,0,23.824,19.982Zm0,7.027a3.194,3.194,0,1,1,3.194-3.194A3.2,3.2,0,0,1,23.824,27.009Z" transform="translate(-14.88 -14.877)"/>
        </g>
      </g>
    </g>
  </g>
</svg>
