<svg xmlns="http://www.w3.org/2000/svg" width="28" height="28" viewBox="0 0 28 28">
  <g id="ViewOnExplorer" transform="translate(-54 -300)">
    <rect id="Rectangle_341" data-name="Rectangle 341" width="28" height="28" transform="translate(54 300)" fill="none"/>
    <g id="Group_756" data-name="Group 756" transform="translate(21.5 -109)">
      <g id="xdc-icon" transform="translate(39.5 415)">
        <g id="Combined_Shape" data-name="Combined Shape" transform="translate(0 0)" fill="none">
          <path d="M6.43,12.941A6.472,6.472,0,0,1,0,7.2l1.453-.726L0,5.744a6.471,6.471,0,0,1,12.861,0l-1.453.727,1.453.726a6.472,6.472,0,0,1-6.43,5.744Z" stroke="none"/>
          <path d="M 6.430258750915527 11.9412956237793 C 7.784368991851807 11.9412956237793 9.083748817443848 11.44288539886475 10.08903884887695 10.53789520263672 C 10.91597270965576 9.79344654083252 11.491135597229 8.824436187744141 11.74844646453857 7.759056568145752 L 9.171689033508301 6.470785617828369 L 11.7484712600708 5.182296276092529 C 11.49116039276123 4.116943359375 10.91598892211914 3.147921085357666 10.08903884887695 2.403455495834351 C 9.083728790283203 1.498425483703613 7.78433895111084 0.9999954104423523 6.430258750915527 0.9999954104423523 C 5.076228618621826 0.9999954104423523 3.776898860931396 1.498415470123291 2.771618843078613 2.403435468673706 C 1.944668650627136 3.14790940284729 1.369497537612915 4.116944313049316 1.112186670303345 5.182296752929688 L 3.689048767089844 6.4708251953125 L 1.112209916114807 7.759027004241943 C 1.369548439979553 8.824312210083008 1.944737792015076 9.79344654083252 2.771618843078613 10.53786563873291 C 3.776878833770752 11.44288539886475 5.07620906829834 11.9412956237793 6.430258750915527 11.9412956237793 M 6.430258750915527 12.9412956237793 C 4.828698635101318 12.9412956237793 3.291748762130737 12.35167503356934 2.102538824081421 11.28105545043945 C 0.9222288727760315 10.21845531463623 0.1755288392305374 8.768054962158203 8.845977390592452e-06 7.197035312652588 L 1.452898859977722 6.470715522766113 L -1.154022243099462e-06 5.744205474853516 C 0.1755288392305374 4.173135280609131 0.9222588539123535 2.72281551361084 2.102538824081421 1.660245418548584 C 3.29175877571106 0.5896254181861877 4.828708648681641 -4.57229634776013e-06 6.430258750915527 -4.57229634776013e-06 C 8.031858444213867 -4.57229634776013e-06 9.568848609924316 0.5896254181861877 10.7581090927124 1.660255432128906 C 11.93842887878418 2.722845315933228 12.68513870239258 4.173225402832031 12.86065864562988 5.744205474853516 L 11.40775871276855 6.470715522766113 L 12.86063861846924 7.197095394134521 C 12.68510913848877 8.768215179443359 11.93837928771973 10.21855545043945 10.75809860229492 11.28109550476074 C 9.568868637084961 12.35168552398682 8.031878471374512 12.9412956237793 6.430258750915527 12.9412956237793 Z" stroke="none" fill="#2a2a2a"/>
        </g>
        <path id="X" d="M1,4.954,2.069,3.137,3.134,4.954h1l-1.531-2.5L4.1,0H3.11L2.069,1.79,1.028,0H.034l1.5,2.457L0,4.954Z" transform="translate(4.351 4.005)" fill="#2a2a2a"/>
      </g>
      <line id="Line_37" data-name="Line 37" x2="3" y2="4" transform="translate(50.5 427.5)" fill="none" stroke="#2a2a2a" stroke-linecap="round" stroke-width="1"/>
    </g>
  </g>
</svg>
