<svg xmlns="http://www.w3.org/2000/svg" width="48" height="48" viewBox="0 0 48 48">
  <g id="xdc-icon-48X48" transform="translate(0 0.456)">
    <path id="Combined_Shape" data-name="Combined Shape" d="M24,48A24.189,24.189,0,0,1,7.848,41.842,23.9,23.9,0,0,1,0,26.694L5.422,24,0,21.306A23.9,23.9,0,0,1,7.848,6.158a24.264,24.264,0,0,1,32.306,0A23.9,23.9,0,0,1,48,21.306L42.578,24,48,26.694a23.9,23.9,0,0,1-7.847,15.147A24.187,24.187,0,0,1,24,48Z" transform="translate(0 -0.456)" fill="#2149b9"/>
    <path id="X" d="M3.712,18.266l3.964-6.7,3.951,6.7h3.724L9.67,9.058,15.225,0H11.539L7.676,6.6,3.813,0H.126L5.694,9.058,0,18.266Z" transform="translate(16.142 14.596)" fill="#fff"/>
  </g>
</svg>
