<svg xmlns="http://www.w3.org/2000/svg" width="16" height="16" viewBox="0 0 16 16">
  <g id="xdc-icon-16X16" transform="translate(0 0.456)">
    <path id="Combined_Shape" data-name="Combined Shape" d="M8,16a8.063,8.063,0,0,1-5.384-2.053A7.967,7.967,0,0,1,0,8.9L1.807,8,0,7.1A7.966,7.966,0,0,1,2.616,2.053a8.088,8.088,0,0,1,10.769,0A7.967,7.967,0,0,1,16,7.1L14.193,8,16,8.9a7.966,7.966,0,0,1-2.616,5.049A8.062,8.062,0,0,1,8,16Z" transform="translate(0 -0.456)" fill="#2149b9"/>
    <path id="X" d="M1.237,6.089,2.559,3.856,3.876,6.089H5.117L3.223,3.019,5.075,0H3.846L2.559,2.2,1.271,0H.042L1.9,3.019,0,6.089Z" transform="translate(5.381 4.562)" fill="#fff"/>
  </g>
</svg>
