<svg id="xdc-icon-128X128" xmlns="http://www.w3.org/2000/svg" width="128" height="128" viewBox="0 0 128 128">
  <path id="Combined_Shape" data-name="Combined Shape" d="M64,128a64.5,64.5,0,0,1-43.075-16.422A63.732,63.732,0,0,1,0,71.185L14.46,64,0,56.815A63.73,63.73,0,0,1,20.927,16.421a64.7,64.7,0,0,1,86.148,0A63.735,63.735,0,0,1,128,56.817L113.54,64,128,71.185a63.731,63.731,0,0,1-20.925,40.393A64.5,64.5,0,0,1,64,128Z" fill="#2149b9"/>
  <path id="X" d="M9.956,49,20.59,31.029,31.19,49h9.99L25.941,24.3,40.842,0H30.953L20.59,17.7,10.227,0H.339L15.273,24.3,0,49Z" transform="translate(43.302 39.616)" fill="#fff"/>
</svg>
