<svg id="xdc-icon" xmlns="http://www.w3.org/2000/svg" width="22" height="22" viewBox="0 0 22 22">
  <path id="Combined_Shape" data-name="Combined Shape" d="M11,22a11.087,11.087,0,0,1-7.4-2.822A10.954,10.954,0,0,1,0,12.235L2.485,11,0,9.765A10.954,10.954,0,0,1,3.6,2.822a11.121,11.121,0,0,1,14.807,0A10.955,10.955,0,0,1,22,9.765L19.515,11,22,12.235a10.954,10.954,0,0,1-3.6,6.943A11.086,11.086,0,0,1,11,22Z" fill="#2149b9"/>
  <path id="X" d="M1.711,8.422,3.539,5.333,5.361,8.422H7.078L4.459,4.176,7.02,0H5.32L3.539,3.043,1.758,0H.058L2.625,4.176,0,8.422Z" transform="translate(7.443 6.809)" fill="#fff"/>
</svg>
