<svg xmlns="http://www.w3.org/2000/svg" width="76.487" height="92.478" viewBox="0 0 76.487 92.478">
  <g id="XDCPay" transform="translate(-34 -57.385)">
    <g id="xdc-icon" transform="translate(40 57.385)">
      <path id="Combined_Shape" data-name="Combined Shape" d="M31.979,64.356A32.184,32.184,0,0,1,0,35.791l7.225-3.612L0,28.566a32.181,32.181,0,0,1,63.955,0L56.73,32.179l7.225,3.612A32.182,32.182,0,0,1,31.979,64.356Z" fill="#2149b9"/>
      <path id="X" d="M4.975,24.637,10.288,15.6l5.3,9.036h4.992l-7.614-12.42L20.406,0H15.466L10.288,8.9,5.11,0H.169L7.631,12.217,0,24.637Z" transform="translate(21.636 19.918)" fill="#fff"/>
    </g>
    <g id="Group_755" data-name="Group 755" transform="translate(0.439 -3)">
      <path id="Path_805" data-name="Path 805" d="M3.636-14.545l3.2,5.327h.114l3.217-5.327h3L8.693-7.273,13.246,0H10.192L6.953-5.291H6.839L3.6,0H.561l4.6-7.273L.618-14.545ZM20.17,0H15.241V-14.545H20.27a7.53,7.53,0,0,1,3.725.87,5.868,5.868,0,0,1,2.4,2.5,8.4,8.4,0,0,1,.838,3.892,8.433,8.433,0,0,1-.842,3.906A5.868,5.868,0,0,1,23.967-.874,7.736,7.736,0,0,1,20.17,0ZM17.876-2.28h2.166a5.218,5.218,0,0,0,2.536-.558,3.522,3.522,0,0,0,1.527-1.669,6.653,6.653,0,0,0,.511-2.781,6.6,6.6,0,0,0-.511-2.773A3.513,3.513,0,0,0,22.6-11.715a5.069,5.069,0,0,0-2.475-.55H17.876Zm24.3-7.358H39.524a3.342,3.342,0,0,0-.419-1.161,3.132,3.132,0,0,0-.76-.863,3.227,3.227,0,0,0-1.033-.536,4.153,4.153,0,0,0-1.246-.181,3.783,3.783,0,0,0-2.1.593,3.94,3.94,0,0,0-1.435,1.733,6.694,6.694,0,0,0-.518,2.781,6.732,6.732,0,0,0,.522,2.809,3.877,3.877,0,0,0,1.435,1.719,3.821,3.821,0,0,0,2.092.579,4.187,4.187,0,0,0,1.225-.174,3.337,3.337,0,0,0,1.03-.515,3.12,3.12,0,0,0,.774-.838,3.2,3.2,0,0,0,.437-1.136l2.656.014a5.765,5.765,0,0,1-.643,1.946,5.743,5.743,0,0,1-1.289,1.6,5.839,5.839,0,0,1-1.861,1.08A6.884,6.884,0,0,1,36.023.2,6.612,6.612,0,0,1,32.6-.689a6.2,6.2,0,0,1-2.372-2.564,8.657,8.657,0,0,1-.866-4.02,8.593,8.593,0,0,1,.874-4.023,6.247,6.247,0,0,1,2.379-2.56,6.585,6.585,0,0,1,3.409-.888,7.236,7.236,0,0,1,2.259.341,5.823,5.823,0,0,1,1.861,1A5.434,5.434,0,0,1,41.488-11.8,6.05,6.05,0,0,1,42.18-9.638Z" transform="translate(33 149)" fill="#2149b9"/>
      <path id="Path_806" data-name="Path 806" d="M1.761,0V-14.545H6.676a5.665,5.665,0,0,1,2.8.614,3.893,3.893,0,0,1,1.616,1.658,5.107,5.107,0,0,1,.526,2.33A5.18,5.18,0,0,1,11.1-7.607,3.907,3.907,0,0,1,9.489-5.934,5.559,5.559,0,0,1,6.7-5.312H3.182V-6.875H6.648a3.789,3.789,0,0,0,1.882-.4,2.431,2.431,0,0,0,1.033-1.1,3.661,3.661,0,0,0,.323-1.566,3.637,3.637,0,0,0-.323-1.562,2.369,2.369,0,0,0-1.04-1.083,3.951,3.951,0,0,0-1.9-.394h-3.1V0ZM17.443.256a4.4,4.4,0,0,1-1.882-.394,3.2,3.2,0,0,1-1.342-1.143,3.208,3.208,0,0,1-.5-1.815,2.819,2.819,0,0,1,.369-1.523,2.616,2.616,0,0,1,.987-.92,5.272,5.272,0,0,1,1.367-.5q.749-.167,1.509-.266.994-.128,1.616-.2a2.471,2.471,0,0,0,.909-.231.6.6,0,0,0,.288-.568v-.057A2.233,2.233,0,0,0,20.2-8.991a2.324,2.324,0,0,0-1.729-.582,3.014,3.014,0,0,0-1.882.526,3.107,3.107,0,0,0-.959,1.122l-1.591-.568a3.833,3.833,0,0,1,1.14-1.552,4.3,4.3,0,0,1,1.563-.781,6.543,6.543,0,0,1,1.673-.224,6.883,6.883,0,0,1,1.211.124,3.959,3.959,0,0,1,1.328.508,2.974,2.974,0,0,1,1.069,1.158,4.307,4.307,0,0,1,.426,2.074V0H20.767V-1.477h-.085a2.951,2.951,0,0,1-.568.76,3.279,3.279,0,0,1-1.058.689A4.077,4.077,0,0,1,17.443.256ZM17.7-1.25a3.345,3.345,0,0,0,1.68-.391,2.692,2.692,0,0,0,1.037-1.009,2.59,2.59,0,0,0,.352-1.3V-5.483a.979.979,0,0,1-.465.231,7.055,7.055,0,0,1-.824.178q-.465.075-.9.128t-.707.089a6.508,6.508,0,0,0-1.218.273,2.122,2.122,0,0,0-.909.561A1.433,1.433,0,0,0,15.4-3.011a1.491,1.491,0,0,0,.65,1.317A2.865,2.865,0,0,0,17.7-1.25Zm8.494,5.313A3.858,3.858,0,0,1,25.433,4a2.088,2.088,0,0,1-.462-.131L25.4,2.386a2.459,2.459,0,0,0,1.527-.011A2.332,2.332,0,0,0,27.983.909L28.3.057,24.261-10.909H26.08l3.011,8.693H29.2l3.011-8.693,1.832.028L29.4,1.591a4.711,4.711,0,0,1-.774,1.381,2.955,2.955,0,0,1-1.069.82A3.332,3.332,0,0,1,26.193,4.063Z" transform="translate(76 148.801)" fill="#2a2a2a"/>
    </g>
  </g>
</svg>
