<svg xmlns="http://www.w3.org/2000/svg" width="26" height="26" viewBox="0 0 26 26">
  <g id="TransactionCreated" transform="translate(-3889 -4435)">
    <g id="Ellipse_118" data-name="Ellipse 118" transform="translate(3889 4435)" fill="#fff" stroke="#2149b9" stroke-width="1">
      <circle cx="13" cy="13" r="13" stroke="none"/>
      <circle cx="13" cy="13" r="12.5" fill="none"/>
    </g>
    <g id="Create" transform="translate(3821.086 4357.922)">
      <g id="Group_790" data-name="Group 790" transform="translate(0 8.463)">
        <g id="Group_787" data-name="Group 787" transform="translate(74.007 74.72)">
          <g id="Group_786" data-name="Group 786" transform="translate(0 0)">
            <path id="Path_822" data-name="Path 822" d="M86.651,77.7l-.906.9-1.2,1.193-.564.562-1.374,1.37-.749.747-.883.88-1.333,1.329-.488.486-1.247,1.243-1.094,1.091-.062.062.39-.162h-2.58l.552.552V85.395l-.162.39.481-.482L76.6,84.136,78.032,82.7,79.3,81.428l.683-.685.335-.336L81.4,79.324,82.822,77.9l1.291-1.294.691-.693a1.224,1.224,0,0,1,.106-.1L84.8,75.9a.886.886,0,0,1,.176-.1l-.132.056a.861.861,0,0,1,.19-.051l-.147.02a.844.844,0,0,1,.19,0l-.147-.02a.829.829,0,0,1,.185.047l-.132-.056a.831.831,0,0,1,.17.1l-.112-.086a2.611,2.611,0,0,1,.215.2l.381.378.857.852a3.086,3.086,0,0,1,.239.246l-.086-.112a.818.818,0,0,1,.091.153l-.056-.132a.8.8,0,0,1,.053.188l-.02-.147a.818.818,0,0,1,0,.194l.02-.147a.844.844,0,0,1-.058.212l.056-.132a.892.892,0,0,1-.106.176l.086-.112c-.021.024-.042.048-.064.071a.552.552,0,0,0,.781.781,1.331,1.331,0,0,0,.25-1.53,1.637,1.637,0,0,0-.34-.424l-.914-.908-.407-.4a1.684,1.684,0,0,0-.436-.352,1.371,1.371,0,0,0-.893-.113,1.325,1.325,0,0,0-.642.358l-.079.08-1.357,1.36L80.6,78.564l-1.3,1.308-.635.637-1.812,1.816-1.9,1.907-.6.6-.141.141a.639.639,0,0,0-.2.445c-.015.77,0,1.542,0,2.312v.229a.56.56,0,0,0,.552.552H76.34c.26,0,.52,0,.779,0a.628.628,0,0,0,.443-.189l.178-.177,1.528-1.524.874-.872,1.293-1.289,1.2-1.2L83.6,82.3l1.491-1.487.759-.756,1.483-1.479.1-.1a.552.552,0,0,0-.781-.781Z" transform="translate(-74.007 -74.72)" fill="#2049b9"/>
          </g>
        </g>
        <g id="Group_789" data-name="Group 789" transform="translate(82.177 76.662)">
          <g id="Group_788" data-name="Group 788" transform="translate(0 0)">
            <path id="Path_823" data-name="Path 823" d="M595.646,200.641l-.873-.873-1.393-1.393-.322-.322a.552.552,0,1,0-.781.781l.873.873,1.393,1.393.322.322a.552.552,0,1,0,.781-.781Z" transform="translate(-592.119 -197.893)" fill="#2049b9"/>
          </g>
        </g>
      </g>
    </g>
  </g>
</svg>
