<svg xmlns="http://www.w3.org/2000/svg" width="26" height="26" viewBox="0 0 26 26">
  <g id="TransactionSubmitted" transform="translate(-3940 -4435)">
    <g id="Ellipse_119" data-name="Ellipse 119" transform="translate(3940 4435)" fill="#fff" stroke="#2149b9" stroke-width="1">
      <circle cx="13" cy="13" r="13" stroke="none"/>
      <circle cx="13" cy="13" r="12.5" fill="none"/>
    </g>
    <g id="UpArrow" transform="translate(3915.5 4413.104)">
      <g id="Group_791" data-name="Group 791" transform="translate(31 28)">
        <path id="Path_824" data-name="Path 824" d="M37.5,980.362a.8.8,0,0,0-.471.193l-5.816,5.474a.685.685,0,0,0-.027.968.7.7,0,0,0,.968.027l4.661-4.394v12.1a.684.684,0,1,0,1.368,0v-12.1l4.661,4.394a.716.716,0,0,0,.968-.027.685.685,0,0,0-.027-.968l-5.816-5.474A.608.608,0,0,0,37.5,980.362Z" transform="translate(-31 -980.362)" fill="#2049b9"/>
      </g>
    </g>
  </g>
</svg>
